<svg width="800" height="420" viewBox="0 0 800 420" fill="none" xmlns="http://www.w3.org/2000/svg">
<g clip-path="url(#clip0_9570_9756)">
<rect width="420" height="800" transform="matrix(-5.98511e-08 -1 -1 3.1924e-08 800 420)" fill="white"/>
<g style="mix-blend-mode:color-dodge" filter="url(#filter0_f_9570_9756)">
<path d="M283.834 238.347C372.413 200.391 394.081 109.712 332.23 35.8105C270.38 -38.0911 148.432 -67.2307 59.853 -29.2748L7.38726 -6.79337C-81.192 31.1626 -102.86 121.841 -41.0094 195.743C20.8412 269.644 142.789 298.784 231.368 260.828L283.834 238.347Z" fill="url(#paint0_radial_9570_9756)"/>
</g>
<g style="mix-blend-mode:color-dodge" filter="url(#filter1_f_9570_9756)">
<path d="M59.0218 147.594C187.745 182.078 342.18 114.315 403.963 -3.75998L480.572 -150.171C542.355 -268.246 488.089 -391.92 359.367 -426.404L112.418 -492.561C-16.3048 -527.045 -170.74 -459.282 -232.523 -341.207L-309.133 -194.795C-370.915 -76.7208 -316.65 46.9526 -187.927 81.437L59.0218 147.594Z" fill="url(#paint1_radial_9570_9756)"/>
</g>
<g style="mix-blend-mode:color-dodge" filter="url(#filter2_f_9570_9756)">
<path d="M940.021 394.457C1078.93 431.672 1245.6 358.544 1312.27 231.122C1378.94 103.699 1320.38 -29.7649 1181.47 -66.9792L1040.97 -104.618C902.059 -141.832 735.397 -68.7042 668.724 58.7179C602.05 186.14 660.612 319.604 799.525 356.819L940.021 394.457Z" fill="url(#paint2_radial_9570_9756)"/>
</g>
<g style="mix-blend-mode:multiply" filter="url(#filter3_f_9570_9756)">
<path d="M351.821 -14.5C179.021 31.5 87.1542 135.333 62.8209 181.5C21.4875 279.167 -34.2791 434.7 73.3209 275.5C207.821 76.5 341.821 101 643.321 15.5C884.521 -52.9 817.488 -134.667 753.821 -167H615.821C599.821 -135.333 524.621 -60.5 351.821 -14.5Z" fill="url(#paint3_linear_9570_9756)"/>
</g>
<g style="mix-blend-mode:multiply" filter="url(#filter4_f_9570_9756)">
<path d="M553.642 61.5C380.842 107.5 288.975 211.333 264.642 257.5C223.309 355.167 167.542 510.7 275.142 351.5C409.642 152.5 543.642 177 845.142 91.5C1086.34 23.1 1019.31 -58.6667 955.642 -91H817.642C801.642 -59.3333 726.442 15.5 553.642 61.5Z" fill="url(#paint4_linear_9570_9756)"/>
</g>
<g filter="url(#filter5_f_9570_9756)">
<path d="M279.834 351.347C368.413 313.391 390.081 222.712 328.23 148.81C266.38 74.9089 144.432 45.7693 55.853 83.7252L3.38726 106.207C-85.192 144.163 -106.86 234.841 -45.0094 308.743C16.8412 382.644 138.789 411.784 227.368 373.828L279.834 351.347Z" fill="url(#paint5_radial_9570_9756)"/>
</g>
<rect width="800" height="420" fill="white" fill-opacity="0.3"/>
</g>
<defs>
<filter id="filter0_f_9570_9756" x="-211.38" y="-181.047" width="713.98" height="593.647" filterUnits="userSpaceOnUse" color-interpolation-filters="sRGB">
<feFlood flood-opacity="0" result="BackgroundImageFix"/>
<feBlend mode="normal" in="SourceGraphic" in2="BackgroundImageFix" result="shape"/>
<feGaussianBlur stdDeviation="67.5618" result="effect1_foregroundBlur_9570_9756"/>
</filter>
<filter id="filter1_f_9570_9756" x="-455.295" y="-622.196" width="1082.03" height="899.425" filterUnits="userSpaceOnUse" color-interpolation-filters="sRGB">
<feFlood flood-opacity="0" result="BackgroundImageFix"/>
<feBlend mode="normal" in="SourceGraphic" in2="BackgroundImageFix" result="shape"/>
<feGaussianBlur stdDeviation="60.323" result="effect1_foregroundBlur_9570_9756"/>
</filter>
<filter id="filter2_f_9570_9756" x="520.542" y="-234.965" width="939.91" height="759.769" filterUnits="userSpaceOnUse" color-interpolation-filters="sRGB">
<feFlood flood-opacity="0" result="BackgroundImageFix"/>
<feBlend mode="normal" in="SourceGraphic" in2="BackgroundImageFix" result="shape"/>
<feGaussianBlur stdDeviation="60.323" result="effect1_foregroundBlur_9570_9756"/>
</filter>
<filter id="filter3_f_9570_9756" x="-38" y="-216" width="900.492" height="608.919" filterUnits="userSpaceOnUse" color-interpolation-filters="sRGB">
<feFlood flood-opacity="0" result="BackgroundImageFix"/>
<feBlend mode="normal" in="SourceGraphic" in2="BackgroundImageFix" result="shape"/>
<feGaussianBlur stdDeviation="24.5" result="effect1_foregroundBlur_9570_9756"/>
</filter>
<filter id="filter4_f_9570_9756" x="163.821" y="-140" width="900.492" height="608.919" filterUnits="userSpaceOnUse" color-interpolation-filters="sRGB">
<feFlood flood-opacity="0" result="BackgroundImageFix"/>
<feBlend mode="normal" in="SourceGraphic" in2="BackgroundImageFix" result="shape"/>
<feGaussianBlur stdDeviation="24.5" result="effect1_foregroundBlur_9570_9756"/>
</filter>
<filter id="filter5_f_9570_9756" x="-215.38" y="-68.0469" width="713.98" height="593.647" filterUnits="userSpaceOnUse" color-interpolation-filters="sRGB">
<feFlood flood-opacity="0" result="BackgroundImageFix"/>
<feBlend mode="normal" in="SourceGraphic" in2="BackgroundImageFix" result="shape"/>
<feGaussianBlur stdDeviation="67.5618" result="effect1_foregroundBlur_9570_9756"/>
</filter>
<radialGradient id="paint0_radial_9570_9756" cx="0" cy="0" r="1" gradientUnits="userSpaceOnUse" gradientTransform="translate(121.302 144.395) rotate(-154.057) scale(209.025 177.217)">
<stop stop-color="#E31B53"/>
<stop offset="1" stop-color="#F257A0" stop-opacity="0"/>
</radialGradient>
<radialGradient id="paint1_radial_9570_9756" cx="0" cy="0" r="1" gradientUnits="userSpaceOnUse" gradientTransform="translate(293.16 -221.62) rotate(157.535) scale(354.173 284.777)">
<stop stop-color="#31BAAE"/>
<stop offset="1" stop-color="#5BDCC6" stop-opacity="0"/>
</radialGradient>
<radialGradient id="paint2_radial_9570_9756" cx="0" cy="0" r="1" gradientUnits="userSpaceOnUse" gradientTransform="translate(897.535 224.275) rotate(-144.112) scale(282.425 268.833)">
<stop stop-color="#5BDCC6"/>
<stop offset="1" stop-color="#F257A0" stop-opacity="0"/>
</radialGradient>
<linearGradient id="paint3_linear_9570_9756" x1="814.105" y1="-186.908" x2="307.084" y2="537.881" gradientUnits="userSpaceOnUse">
<stop stop-color="#F2FDFF"/>
<stop offset="0.78125" stop-color="#5FBBF3"/>
<stop offset="1" stop-color="#535CFF" stop-opacity="0"/>
</linearGradient>
<linearGradient id="paint4_linear_9570_9756" x1="1015.93" y1="-110.908" x2="508.905" y2="613.881" gradientUnits="userSpaceOnUse">
<stop stop-color="#F2FDFF"/>
<stop offset="0.78125" stop-color="#5FBBF3"/>
<stop offset="1" stop-color="#535CFF" stop-opacity="0"/>
</linearGradient>
<radialGradient id="paint5_radial_9570_9756" cx="0" cy="0" r="1" gradientUnits="userSpaceOnUse" gradientTransform="translate(117.302 257.395) rotate(-154.057) scale(209.025 177.217)">
<stop stop-color="#00E2E2"/>
<stop offset="1" stop-color="#2C32FE" stop-opacity="0.31"/>
</radialGradient>
<clipPath id="clip0_9570_9756">
<rect width="420" height="800" fill="white" transform="matrix(-5.98511e-08 -1 -1 3.1924e-08 800 420)"/>
</clipPath>
</defs>
</svg>
