<svg width="150" height="112" viewBox="0 0 150 112" fill="none" xmlns="http://www.w3.org/2000/svg">
<g id="Group 950">
<path id="Vector" d="M108.892 3.41794C109.58 3.41794 110.138 2.86046 110.138 2.17277C110.138 1.48509 109.58 0.927612 108.892 0.927612C108.205 0.927612 107.647 1.48509 107.647 2.17277C107.647 2.86046 108.205 3.41794 108.892 3.41794Z" fill="#CFCFCF"/>
<path id="Vector_2" d="M117.566 89.5299C118.254 89.5299 118.812 88.9724 118.812 88.2847C118.812 87.597 118.254 87.0396 117.566 87.0396C116.879 87.0396 116.321 87.597 116.321 88.2847C116.321 88.9724 116.879 89.5299 117.566 89.5299Z" fill="#CFCFCF"/>
<path id="Vector_3" d="M101.058 46.8726C90.3969 46.8726 79.5682 46.4389 69.439 43.6268C59.3098 40.8147 50.4118 35.5123 42.2133 29.3145C36.8829 25.2712 32.0142 22.0673 25.1168 22.557C18.352 22.917 11.8823 25.4431 6.66324 29.7621C-2.1928 37.471 -0.793741 51.7274 2.70391 61.7446C7.99235 76.8545 24.0955 87.3334 37.7783 94.1748C53.5877 102.066 70.95 106.654 88.3683 109.299C103.758 111.621 123.247 113.3 136.468 103.325C148.626 94.1748 151.955 73.2589 148.975 59.1424C148.254 54.9702 146.036 51.2045 142.736 48.5515C134.201 42.3117 121.47 46.4809 111.872 46.6908C108.333 46.7747 104.695 46.8587 101.058 46.8726Z" fill="#F2F2F2"/>
<path id="Vector_4" d="M143.337 26.7122V32.1965" stroke="#BABABA" stroke-linecap="round" stroke-linejoin="round"/>
<path id="Vector_5" d="M140.609 29.4542H146.079" stroke="#BABABA" stroke-linecap="round" stroke-linejoin="round"/>
<path id="Vector_6" d="M126.784 28.1135L30.1238 19.5548C27.3222 19.3067 24.8499 21.3767 24.6019 24.1783L18.5839 92.1445C18.3358 94.9461 20.4059 97.4183 23.2074 97.6664L119.868 106.225C122.67 106.473 125.142 104.403 125.39 101.602L131.408 33.6353C131.656 30.8338 129.586 28.3615 126.784 28.1135Z" fill="white" stroke="#BABABA" stroke-linecap="round" stroke-linejoin="round"/>
<path id="Vector_7" d="M103.426 52.9635L48.7687 48.1239C47.4911 48.0108 46.3636 48.9548 46.2505 50.2324L45.9136 54.037C45.8005 55.3146 46.7445 56.4421 48.0222 56.5552L102.679 61.3948C103.957 61.5079 105.085 60.5639 105.198 59.2862L105.535 55.4817C105.648 54.204 104.704 53.0766 103.426 52.9635Z" fill="white" stroke="#BABABA" stroke-linecap="round" stroke-linejoin="round"/>
<path id="Vector_8" d="M101.968 69.3919L47.3105 64.5524C46.0328 64.4392 44.9054 65.3833 44.7922 66.6609L44.4554 70.4655C44.3422 71.7431 45.2863 72.8706 46.5639 72.9837L101.221 77.8233C102.499 77.9364 103.626 76.9924 103.739 75.7147L104.076 71.9102C104.189 70.6325 103.245 69.5051 101.968 69.3919Z" fill="white" stroke="#BABABA" stroke-linecap="round" stroke-linejoin="round"/>
<path id="Vector_9" d="M82.4519 84.5139L63.8751 82.869C62.8976 82.7824 62.0351 83.5047 61.9485 84.4822L61.5154 89.3737C61.4288 90.3512 62.1511 91.2138 63.1286 91.3003L81.7053 92.9452C82.6828 93.0317 83.5454 92.3095 83.6319 91.332L84.065 86.4405C84.1516 85.463 83.4294 84.6004 82.4519 84.5139Z" fill="#D2D2D2"/>
<path id="Vector_10" d="M91.2086 23.3964C91.2086 26.6007 90.2584 29.733 88.4782 32.3972C86.698 35.0615 84.1678 37.138 81.2074 38.3642C78.247 39.5905 74.9895 39.9113 71.8468 39.2862C68.7041 38.6611 65.8174 37.1181 63.5516 34.8523C61.2858 32.5865 59.7428 29.6998 59.1177 26.5571C58.4926 23.4144 58.8134 20.1569 60.0396 17.1965C61.2659 14.2361 63.3424 11.7059 66.0067 9.92566C68.6709 8.14546 71.8032 7.19529 75.0075 7.19529C77.1382 7.18416 79.2499 7.59562 81.2205 8.40586C83.1912 9.2161 84.9816 10.409 86.4882 11.9157C87.9948 13.4223 89.1878 15.2127 89.998 17.1834C90.8083 19.154 91.2197 21.2657 91.2086 23.3964Z" fill="white" stroke="#BABABA" stroke-linecap="round" stroke-linejoin="round"/>
<path id="Vector_11" d="M75.0071 19.9966C77.9433 19.9966 80.3235 17.6164 80.3235 14.6802C80.3235 11.744 77.9433 9.36377 75.0071 9.36377C72.0709 9.36377 69.6907 11.744 69.6907 14.6802C69.6907 17.6164 72.0709 19.9966 75.0071 19.9966Z" fill="#D2D2D2"/>
<path id="Vector_12" d="M61.1146 55.8826C62.4436 55.8826 63.521 54.8052 63.521 53.4762C63.521 52.1472 62.4436 51.0698 61.1146 51.0698C59.7856 51.0698 58.7083 52.1472 58.7083 53.4762C58.7083 54.8052 59.7856 55.8826 61.1146 55.8826Z" fill="#D2D2D2"/>
<path id="Vector_13" d="M70.8522 56.736C72.1812 56.736 73.2586 55.6586 73.2586 54.3296C73.2586 53.0006 72.1812 51.9232 70.8522 51.9232C69.5232 51.9232 68.4458 53.0006 68.4458 54.3296C68.4458 55.6586 69.5232 56.736 70.8522 56.736Z" fill="#D2D2D2"/>
<path id="Vector_14" d="M80.5895 57.6034C81.9185 57.6034 82.9959 56.526 82.9959 55.197C82.9959 53.868 81.9185 52.7906 80.5895 52.7906C79.2605 52.7906 78.1831 53.868 78.1831 55.197C78.1831 56.526 79.2605 57.6034 80.5895 57.6034Z" fill="#D2D2D2"/>
<path id="Vector_15" d="M90.3268 58.4568C91.6558 58.4568 92.7332 57.3794 92.7332 56.0504C92.7332 54.7214 91.6558 53.644 90.3268 53.644C88.9978 53.644 87.9204 54.7214 87.9204 56.0504C87.9204 57.3794 88.9978 58.4568 90.3268 58.4568Z" fill="#D2D2D2"/>
<path id="Vector_16" d="M87.3468 33.3717C85.8285 35.1445 83.871 36.5931 81.7506 37.5689C79.6302 38.5446 77.3971 38.9679 75.063 38.9679C72.7289 38.9679 70.5799 38.5446 68.4595 37.5689C66.3391 36.5931 64.3816 35.1445 62.8633 33.3717C63.0736 30.2571 64.3752 27.8984 66.6557 25.7667C68.9362 23.635 71.9413 22.4492 75.063 22.4492C78.1847 22.4492 81.1898 23.635 83.4703 25.7667C85.7508 27.8984 87.1365 30.2571 87.3468 33.3717Z" fill="#D2D2D2"/>
<path id="Vector_17" d="M91.2086 23.3964C91.2086 26.6007 90.2584 29.733 88.4782 32.3972C86.698 35.0615 84.1678 37.138 81.2074 38.3642C78.247 39.5905 74.9895 39.9113 71.8468 39.2862C68.7041 38.6611 65.8174 37.1181 63.5516 34.8523C61.2858 32.5865 59.7428 29.6998 59.1177 26.5571C58.4926 23.4144 58.8134 20.1569 60.0396 17.1965C61.2659 14.2361 63.3424 11.7059 66.0067 9.92566C68.6709 8.14546 71.8032 7.19529 75.0075 7.19529C77.1382 7.18416 79.2499 7.59562 81.2205 8.40586C83.1912 9.2161 84.9816 10.409 86.4882 11.9157C87.9948 13.4223 89.1878 15.2127 89.998 17.1834C90.8083 19.154 91.2197 21.2657 91.2086 23.3964Z" stroke="#BABABA" stroke-linecap="round" stroke-linejoin="round"/>
</g>
</svg>
