<svg width="150" height="120" viewBox="0 0 150 120" fill="none" xmlns="http://www.w3.org/2000/svg">
<g id="Group 952">
<path id="Vector" d="M68.9652 119.341C91.382 119.341 109.554 118.212 109.554 116.819C109.554 115.427 91.382 114.298 68.9652 114.298C46.5484 114.298 28.376 115.427 28.376 116.819C28.376 118.212 46.5484 119.341 68.9652 119.341Z" fill="#F2F2F2"/>
<path id="Vector_2" d="M87.8443 43.5817C78.5762 43.637 69.1644 43.2057 60.3608 40.7615C51.5573 38.3173 43.7712 33.7054 36.693 28.3193C32.059 24.8134 27.8452 22.0263 21.8287 22.4466C15.9461 22.7557 10.3192 24.9506 5.78103 28.7064C-1.87231 35.4086 -0.711037 47.7955 2.34145 56.5106C6.9423 69.6385 20.9439 78.7517 32.8331 84.6908C46.5804 91.5589 61.6769 95.5514 76.8177 97.8408C90.0894 99.8537 107.132 101.325 118.624 92.6538C129.186 84.7018 132.083 66.5196 129.495 54.2433C128.865 50.6174 126.935 47.3457 124.065 45.0416C116.644 39.6223 105.584 43.2389 97.245 43.4269C94.2036 43.4933 91.0074 43.5707 87.8443 43.5817Z" fill="#F2F2F2"/>
<path id="Vector_3" d="M42.6541 0.658936V5.41462" stroke="#CFCFCF" stroke-width="0.85" stroke-linecap="round" stroke-linejoin="round"/>
<path id="Vector_4" d="M40.2761 3.03687H45.0318" stroke="#CFCFCF" stroke-width="0.85" stroke-linecap="round" stroke-linejoin="round"/>
<path id="Vector_5" d="M132.879 95.4519V100.208" stroke="#CFCFCF" stroke-width="0.85" stroke-linecap="round" stroke-linejoin="round"/>
<path id="Vector_6" d="M130.502 97.8297H135.257" stroke="#CFCFCF" stroke-width="0.85" stroke-linecap="round" stroke-linejoin="round"/>
<path id="Vector_7" d="M6.72082 74.914C7.31941 74.914 7.80467 74.4288 7.80467 73.8302C7.80467 73.2316 7.31941 72.7463 6.72082 72.7463C6.12222 72.7463 5.63696 73.2316 5.63696 73.8302C5.63696 74.4288 6.12222 74.914 6.72082 74.914Z" fill="#CFCFCF"/>
<path id="Vector_8" d="M99.0035 5.56944C99.6021 5.56944 100.087 5.08419 100.087 4.48559C100.087 3.88699 99.6021 3.40173 99.0035 3.40173C98.4049 3.40173 97.9197 3.88699 97.9197 4.48559C97.9197 5.08419 98.4049 5.56944 99.0035 5.56944Z" fill="#CFCFCF"/>
<path id="Vector_9" d="M37.6994 13.5768H96.6478C98.1144 13.5768 99.5209 14.1594 100.558 15.1964C101.595 16.2335 102.178 17.64 102.178 19.1067V89.2364C102.178 90.7031 101.595 92.1096 100.558 93.1467C99.5209 94.1837 98.1144 94.7663 96.6478 94.7663H30.1456C28.679 94.7663 27.2724 94.1837 26.2354 93.1467C25.1983 92.1096 24.6157 90.7031 24.6157 89.2364V26.7932L37.6994 13.5768Z" fill="white" stroke="#BABABA" stroke-linecap="round" stroke-linejoin="round"/>
<path id="Vector_10" d="M101.912 47.7513H41.1279V95.4409H101.912V47.7513Z" fill="#D2D2D2"/>
<path id="Vector_11" d="M24.6157 26.7932H35.3326C35.9613 26.7902 36.5633 26.5384 37.0069 26.0928C37.4504 25.6472 37.6994 25.0441 37.6994 24.4153V13.5768L24.6157 26.7932Z" fill="white" stroke="#BABABA" stroke-linecap="round" stroke-linejoin="round"/>
<path id="Vector_12" d="M101.613 32.5221H41.4927C39.1533 32.5221 37.2568 34.4186 37.2568 36.758V49.6204C37.2568 51.9599 39.1533 53.8563 41.4927 53.8563H101.613C103.953 53.8563 105.849 51.9599 105.849 49.6204V36.758C105.849 34.4186 103.953 32.5221 101.613 32.5221Z" fill="white" stroke="#BABABA" stroke-linecap="round" stroke-linejoin="round"/>
<path id="Vector_13" d="M48.9359 46.9107C50.976 46.9107 52.6299 45.2569 52.6299 43.2168C52.6299 41.1767 50.976 39.5228 48.9359 39.5228C46.8958 39.5228 45.2419 41.1767 45.2419 43.2168C45.2419 45.2569 46.8958 46.9107 48.9359 46.9107Z" fill="#D2D2D2"/>
<path id="Vector_14" d="M60.5487 46.9107C62.5888 46.9107 64.2426 45.2569 64.2426 43.2168C64.2426 41.1767 62.5888 39.5228 60.5487 39.5228C58.5086 39.5228 56.8547 41.1767 56.8547 43.2168C56.8547 45.2569 58.5086 46.9107 60.5487 46.9107Z" fill="#D2D2D2"/>
<path id="Vector_15" d="M72.1505 46.9107C74.1906 46.9107 75.8444 45.2569 75.8444 43.2168C75.8444 41.1767 74.1906 39.5228 72.1505 39.5228C70.1104 39.5228 68.4565 41.1767 68.4565 43.2168C68.4565 45.2569 70.1104 46.9107 72.1505 46.9107Z" fill="#D2D2D2"/>
<path id="Vector_16" d="M101.613 56.1678H41.4927C39.1533 56.1678 37.2568 58.0643 37.2568 60.4037V73.2662C37.2568 75.6056 39.1533 77.5021 41.4927 77.5021H101.613C103.953 77.5021 105.849 75.6056 105.849 73.2662V60.4037C105.849 58.0643 103.953 56.1678 101.613 56.1678Z" fill="white" stroke="#BABABA" stroke-linecap="round" stroke-linejoin="round"/>
<path id="Vector_17" d="M48.9359 70.5676C50.976 70.5676 52.6299 68.9137 52.6299 66.8736C52.6299 64.8335 50.976 63.1797 48.9359 63.1797C46.8958 63.1797 45.2419 64.8335 45.2419 66.8736C45.2419 68.9137 46.8958 70.5676 48.9359 70.5676Z" fill="#D2D2D2"/>
<path id="Vector_18" d="M60.5487 70.5676C62.5888 70.5676 64.2426 68.9137 64.2426 66.8736C64.2426 64.8335 62.5888 63.1797 60.5487 63.1797C58.5086 63.1797 56.8547 64.8335 56.8547 66.8736C56.8547 68.9137 58.5086 70.5676 60.5487 70.5676Z" fill="#D2D2D2"/>
<path id="Vector_19" d="M72.1505 70.5676C74.1906 70.5676 75.8444 68.9137 75.8444 66.8736C75.8444 64.8335 74.1906 63.1797 72.1505 63.1797C70.1104 63.1797 68.4565 64.8335 68.4565 66.8736C68.4565 68.9137 70.1104 70.5676 72.1505 70.5676Z" fill="#D2D2D2"/>
<path id="Vector_20" d="M101.613 79.8246H41.4927C39.1533 79.8246 37.2568 81.7211 37.2568 84.0605V96.9229C37.2568 99.2623 39.1533 101.159 41.4927 101.159H101.613C103.953 101.159 105.849 99.2623 105.849 96.9229V84.0605C105.849 81.7211 103.953 79.8246 101.613 79.8246Z" fill="white" stroke="#BABABA" stroke-linecap="round" stroke-linejoin="round"/>
<path id="Vector_21" d="M48.9359 94.2133C50.976 94.2133 52.6299 92.5595 52.6299 90.5194C52.6299 88.4793 50.976 86.8254 48.9359 86.8254C46.8958 86.8254 45.2419 88.4793 45.2419 90.5194C45.2419 92.5595 46.8958 94.2133 48.9359 94.2133Z" fill="#D2D2D2"/>
<path id="Vector_22" d="M60.5487 94.2133C62.5888 94.2133 64.2426 92.5595 64.2426 90.5194C64.2426 88.4793 62.5888 86.8254 60.5487 86.8254C58.5086 86.8254 56.8547 88.4793 56.8547 90.5194C56.8547 92.5595 58.5086 94.2133 60.5487 94.2133Z" fill="#D2D2D2"/>
<path id="Vector_23" d="M72.1505 94.2133C74.1906 94.2133 75.8444 92.5595 75.8444 90.5194C75.8444 88.4793 74.1906 86.8254 72.1505 86.8254C70.1104 86.8254 68.4565 88.4793 68.4565 90.5194C68.4565 92.5595 70.1104 94.2133 72.1505 94.2133Z" fill="#D2D2D2"/>
<path id="Vector_24" d="M107.055 59.4635C119.717 59.4635 129.982 49.1988 129.982 36.5367C129.982 23.8746 119.717 13.6099 107.055 13.6099C94.3926 13.6099 84.1279 23.8746 84.1279 36.5367C84.1279 49.1988 94.3926 59.4635 107.055 59.4635Z" fill="white" stroke="#BABABA" stroke-linecap="round" stroke-linejoin="round"/>
<path id="Vector_25" d="M123.335 53.1705L129.44 59.2755" stroke="#BABABA" stroke-linecap="round" stroke-linejoin="round"/>
<path id="Vector_26" d="M128.758 56.3118L126.863 58.2944C126.01 59.1863 126.042 60.6005 126.934 61.4531L143.402 77.1964C144.294 78.0489 145.708 78.0171 146.561 77.1252L148.456 75.1426C149.309 74.2507 149.277 72.8365 148.385 71.984L131.917 56.2407C131.025 55.3881 129.611 55.4199 128.758 56.3118Z" fill="white" stroke="#BABABA" stroke-linecap="round" stroke-linejoin="round"/>
</g>
</svg>
