<svg width="170" height="146" viewBox="0 0 170 146" fill="none" xmlns="http://www.w3.org/2000/svg">
<path d="M111.053 64.4784C100.407 64.4784 89.5708 64.046 79.4339 61.2224C69.4877 58.4624 60.3556 53.1077 52.2155 46.9136C46.8863 42.8817 42.0404 39.6766 35.1213 40.1599C28.3466 40.5308 21.8713 43.0728 16.6535 47.4097C7.85205 55.041 9.17481 69.3243 12.6979 79.3595C17.989 94.4695 34.0911 104.937 47.7766 111.78C63.5861 119.678 80.9601 124.257 98.3723 126.903C113.635 129.217 133.247 130.909 146.475 120.937C158.622 111.78 161.954 90.8701 158.978 76.7521C158.256 72.5776 156.036 68.8102 152.733 66.1573C144.198 59.925 131.467 64.0841 121.877 64.3003C118.315 64.3766 114.691 64.4657 111.053 64.4784Z" fill="#F2F2F2"/>
<path d="M132.713 48.9359V54.4177" stroke="#BABABA" stroke-linecap="round" stroke-linejoin="round"/>
<path d="M129.979 51.6832H135.448" stroke="#BABABA" stroke-linecap="round" stroke-linejoin="round"/>
<path d="M40.8577 95.0038V100.473" stroke="#BABABA" stroke-linecap="round" stroke-linejoin="round"/>
<path d="M38.1104 97.7383H43.5922" stroke="#BABABA" stroke-linecap="round" stroke-linejoin="round"/>
<path d="M33.188 26.1438V31.6129" stroke="#BABABA" stroke-linecap="round" stroke-linejoin="round"/>
<path d="M30.4409 28.8784H35.9228" stroke="#BABABA" stroke-linecap="round" stroke-linejoin="round"/>
<path d="M92.7889 13.4503C93.4773 13.4503 94.0354 12.8922 94.0354 12.2038C94.0354 11.5155 93.4773 10.9574 92.7889 10.9574C92.1005 10.9574 91.5425 11.5155 91.5425 12.2038C91.5425 12.8922 92.1005 13.4503 92.7889 13.4503Z" fill="#CFCFCF"/>
<path d="M89.8126 135.043C90.501 135.043 91.0591 134.485 91.0591 133.796C91.0591 133.108 90.501 132.55 89.8126 132.55C89.1242 132.55 88.5662 133.108 88.5662 133.796C88.5662 134.485 89.1242 135.043 89.8126 135.043Z" fill="#CFCFCF"/>
<path d="M116.58 19.3984L44.0402 26.9331C42.3844 27.1051 41.1814 28.5869 41.3534 30.2428L51.2743 125.756C51.4463 127.412 52.9281 128.615 54.584 128.443L127.124 120.909C128.78 120.737 129.983 119.255 129.811 117.599L119.89 22.0853C119.718 20.4294 118.236 19.2264 116.58 19.3984Z" fill="#D2D2D2"/>
<path d="M113.459 23.8072L47.9907 30.6073C46.3348 30.7793 45.1319 32.2611 45.3039 33.9169L54.276 120.297C54.448 121.953 55.9298 123.156 57.5857 122.984L123.054 116.183C124.71 116.011 125.912 114.53 125.74 112.874L116.768 26.494C116.596 24.8381 115.115 23.6352 113.459 23.8072Z" fill="white" stroke="#BABABA" stroke-linecap="round" stroke-linejoin="round"/>
<path d="M70.6833 87.7413C71.0999 83.9671 72.796 80.4492 75.4896 77.7728C78.1832 75.0964 81.7119 73.4228 85.4887 73.0304C89.2655 72.638 93.0629 73.5505 96.2491 75.616C99.4354 77.6815 101.818 80.7755 103.002 84.3835" stroke="#BABABA" stroke-linecap="round" stroke-linejoin="round"/>
<path d="M72.5403 58.6151L66.448 66.1192" stroke="#BABABA" stroke-linecap="round" stroke-linejoin="round"/>
<path d="M65.7485 59.3273L73.24 65.4069" stroke="#BABABA" stroke-linecap="round" stroke-linejoin="round"/>
<path d="M101.997 55.5626L95.9048 63.054" stroke="#BABABA" stroke-linecap="round" stroke-linejoin="round"/>
<path d="M95.2053 56.262L102.697 62.3543" stroke="#BABABA" stroke-linecap="round" stroke-linejoin="round"/>
</svg>
