<svg width="170" height="126" viewBox="0 0 170 126" fill="none" xmlns="http://www.w3.org/2000/svg">
<path d="M111.062 50.3854C100.404 50.4489 89.5802 49.9535 79.4428 47.1333C69.3055 44.3132 60.3876 39.0158 52.2193 32.8292C46.8839 28.7895 42.0566 25.5882 35.1205 26.071C28.3507 26.4306 21.8756 28.9556 16.6496 33.2738C7.84613 40.9848 9.17999 55.2381 12.6989 65.2993C17.9835 80.3656 34.0915 90.8586 47.7731 97.6804C63.5889 105.582 80.9673 110.168 98.371 112.81C113.691 115.135 133.242 116.812 146.466 106.852C158.624 97.6931 161.952 76.7832 158.979 62.6569C158.257 58.4853 156.034 54.7217 152.729 52.075C144.192 45.8249 131.464 50.0043 121.872 50.2076C118.315 50.2838 114.695 50.3727 111.062 50.3854Z" fill="#F2F2F2"/>
<path d="M48.7256 104.731V110.206" stroke="#CFCFCF" stroke-linecap="round" stroke-linejoin="round"/>
<path d="M45.9946 107.475H51.4698" stroke="#CFCFCF" stroke-linecap="round" stroke-linejoin="round"/>
<path d="M140.216 37.3644V42.8396" stroke="#CFCFCF" stroke-linecap="round" stroke-linejoin="round"/>
<path d="M137.485 40.1084H142.96" stroke="#CFCFCF" stroke-linecap="round" stroke-linejoin="round"/>
<path d="M82.0594 13.0245C82.747 13.0245 83.3043 12.4672 83.3043 11.7796C83.3043 11.092 82.747 10.5347 82.0594 10.5347C81.3718 10.5347 80.8145 11.092 80.8145 11.7796C80.8145 12.4672 81.3718 13.0245 82.0594 13.0245Z" fill="#CFCFCF"/>
<path d="M45.9185 77.1389C45.9185 64.9829 50.7474 53.3249 59.3429 44.7293C67.9385 36.1337 79.5966 31.3048 91.7525 31.3048C103.909 31.3048 115.567 36.1337 124.162 44.7293C132.758 53.3249 137.587 64.9829 137.587 77.1389" stroke="#BABABA" stroke-linecap="round" stroke-linejoin="round"/>
<path d="M132.543 95.4446H123.499V59.3032H132.543C134.76 59.3032 136.886 60.1839 138.454 61.7515C140.022 63.3191 140.902 65.4452 140.902 67.6621V87.0857C140.902 89.3026 140.022 91.4287 138.454 92.9963C136.886 94.5639 134.76 95.4446 132.543 95.4446Z" fill="#D2D2D2"/>
<path d="M50.6435 59.3032H59.6884V95.4446H50.6435C48.4266 95.4446 46.3005 94.5639 44.7329 92.9963C43.1653 91.4287 42.2847 89.3026 42.2847 87.0857V67.6621C42.2847 65.4452 43.1653 63.3191 44.7329 61.7515C46.3005 60.1839 48.4266 59.3032 50.6435 59.3032Z" fill="#D2D2D2"/>
<path d="M91.7521 115.465C112.919 115.465 130.078 98.306 130.078 77.139C130.078 55.9719 112.919 38.8126 91.7521 38.8126C70.5851 38.8126 53.4258 55.9719 53.4258 77.139C53.4258 98.306 70.5851 115.465 91.7521 115.465Z" fill="white" stroke="#BABABA" stroke-linecap="round" stroke-linejoin="round"/>
<path d="M79.7729 92.4339C80.3672 89.6985 81.8797 87.249 84.059 85.4923C86.2383 83.7356 88.9532 82.7777 91.7523 82.7777C94.5515 82.7777 97.2663 83.7356 99.4456 85.4923C101.625 87.249 103.137 89.6985 103.732 92.4339" stroke="#BABABA" stroke-linecap="round" stroke-linejoin="round"/>
<path d="M105.281 78.1426C106.221 78.1426 106.984 77.3804 106.984 76.4403C106.984 75.5002 106.221 74.738 105.281 74.738C104.341 74.738 103.579 75.5002 103.579 76.4403C103.579 77.3804 104.341 78.1426 105.281 78.1426Z" fill="#BABABA"/>
<path d="M78.2228 78.1426C79.1629 78.1426 79.925 77.3804 79.925 76.4403C79.925 75.5002 79.1629 74.738 78.2228 74.738C77.2826 74.738 76.5205 75.5002 76.5205 76.4403C76.5205 77.3804 77.2826 78.1426 78.2228 78.1426Z" fill="#BABABA"/>
<path d="M54.6582 38.0122L57.3387 19.7954C57.2077 19.7836 57.0759 19.7836 56.9449 19.7954L43.9238 21.6883C41.9675 21.9804 40.0111 22.2726 38.0421 22.5394C37.9322 22.5342 37.8223 22.5515 37.7193 22.59C37.6162 22.6285 37.522 22.6876 37.4424 22.7636C37.3628 22.8396 37.2995 22.931 37.2563 23.0322C37.2131 23.1334 37.1909 23.2424 37.191 23.3524C36.1747 30.4155 35.0695 37.4533 34.1167 44.5164C34.0411 45.5729 33.607 46.5719 32.8862 47.3481C32.1655 48.1243 31.2013 48.6312 30.1533 48.7847C28.9044 49.1051 27.595 49.1066 26.3454 48.7892C25.0958 48.4718 23.9459 47.8456 23.0012 46.9682C22.3812 46.4767 21.9346 45.7998 21.7267 45.0365C21.5187 44.2731 21.5602 43.4633 21.8452 42.7252C22.0983 42.1019 22.4948 41.5471 23.0024 41.1057C23.5101 40.6642 24.1146 40.3487 24.767 40.1845C25.8942 39.8043 27.0925 39.6822 28.2733 39.8273C29.4541 39.9724 30.5871 40.381 31.5888 41.0229L31.9444 41.2389C31.9444 41.2389 31.9444 41.2389 32.1223 41.2389C32.1223 41.0356 32.2366 40.8324 32.262 40.6164C33.4816 32.3761 34.6926 24.1273 35.8952 15.8701C35.9841 15.2857 36.162 15.0444 36.7718 14.9554C41.688 14.2821 46.6042 13.558 51.5078 12.8467L60.6416 11.5509H61.0735C61.0869 11.7412 61.0869 11.9322 61.0735 12.1226C59.5491 22.0736 58.0501 32.0289 56.5765 41.9884C56.4639 42.6334 56.1972 43.2416 55.7991 43.7614C55.401 44.2811 54.8832 44.697 54.2898 44.9737C52.9091 45.6204 51.3726 45.86 49.8605 45.6642C48.3485 45.4685 46.9236 44.8455 45.7531 43.8685C43.2124 41.493 43.7968 38.2155 47.0997 37.0086C48.2454 36.5702 49.4782 36.4074 50.6985 36.5331C51.9188 36.6589 53.0924 37.0698 54.1247 37.7327C54.2386 37.8121 54.3574 37.8842 54.4804 37.9487C54.4804 37.9487 54.5693 37.9995 54.6582 38.0122Z" fill="#D2D2D2"/>
</svg>
