<svg width="86" height="36" viewBox="0 0 86 36" fill="none" xmlns="http://www.w3.org/2000/svg">
<g id="logo_blue">
<path id="Vector" fill-rule="evenodd" clip-rule="evenodd" d="M18.0285 11.7219C17.1466 10.6392 15.8237 10.0979 14.06 10.0979C13.0467 10.0979 12.193 10.2845 11.4987 10.6579C10.8232 11.0312 10.2697 11.6472 9.83814 12.5059C9.83814 11.9272 9.6036 11.4325 9.1345 11.0219C8.68418 10.5925 7.9524 10.3779 6.93916 10.3779H5.84149C5.59756 10.3779 5.44745 10.4059 5.39116 10.4619C5.3161 10.5365 5.2692 10.7792 5.25043 11.1899C5.2129 11.5445 5.15661 12.1885 5.08156 13.1219C5.02527 14.0552 4.95021 15.1285 4.8564 16.3419C4.76258 17.5365 4.65938 18.7965 4.5468 20.1219C4.45298 21.4472 4.35916 22.6885 4.26534 23.8459C4.19029 24.9845 4.12461 25.9645 4.06832 26.7859C4.01203 27.6072 3.98389 28.1112 3.98389 28.2979C3.98389 28.7272 4.02141 29.1005 4.09647 29.4179C4.19029 29.7539 4.3404 30.0339 4.5468 30.2579C4.77196 30.4819 5.0628 30.6499 5.4193 30.7619C5.79458 30.8925 6.27305 30.9579 6.85472 30.9579H7.86796C8.11189 30.9579 8.27138 30.9205 8.34643 30.8459C8.42149 30.7712 8.4684 30.6219 8.48716 30.3979C8.56221 29.5392 8.6185 28.8672 8.65603 28.3819C8.69356 27.8965 8.7217 27.5139 8.74047 27.2339C8.778 26.9539 8.79676 26.7299 8.79676 26.5619C8.81552 26.3939 8.83429 26.1979 8.85305 25.9739C8.87181 25.7685 8.89996 25.4885 8.93749 25.1339C8.97501 24.7792 9.02192 24.2659 9.07821 23.5939C9.3972 24.3779 9.83814 24.9845 10.4011 25.4139C10.964 25.8432 11.7426 26.0579 12.7371 26.0579C13.6753 26.0579 14.5478 25.8525 15.3547 25.4419C16.1615 25.0312 16.8651 24.4339 17.4656 23.6499C18.066 22.8472 18.5351 21.8765 18.8728 20.7379C19.2106 19.5992 19.3794 18.3019 19.3794 16.8459C19.3794 14.5125 18.9291 12.8045 18.0285 11.7219ZM9.89443 15.0539C10.3448 14.2325 11.0484 13.8219 12.0053 13.8219C12.4744 13.8219 12.8591 13.9245 13.1593 14.1299C13.4595 14.3352 13.6941 14.6059 13.8629 14.9419C14.0318 15.2779 14.1444 15.6699 14.2007 16.1179C14.2757 16.5472 14.3133 16.9952 14.3133 17.4619C14.3133 19.1419 14.0412 20.3739 13.497 21.1579C12.9529 21.9419 12.2774 22.3339 11.4706 22.3339C11.0203 22.3339 10.645 22.2219 10.3448 21.9979C10.0633 21.7739 9.83814 21.4752 9.66927 21.1019C9.5004 20.7285 9.37843 20.3085 9.30338 19.8419C9.24709 19.3752 9.21894 18.8992 9.21894 18.4139C9.21894 16.9952 9.4441 15.8752 9.89443 15.0539ZM21.4708 25.1059C21.9774 25.7219 22.8124 26.0299 23.9757 26.0299C24.6324 26.0299 25.1672 25.9365 25.58 25.7499C26.0116 25.5445 26.3493 25.2832 26.5932 24.9659C26.8372 24.6299 27.006 24.2659 27.0999 23.8739C27.1937 23.4632 27.2406 23.0525 27.2406 22.6419C27.2406 22.5485 27.1468 22.4925 26.9591 22.4739C26.7903 22.4365 26.6026 22.3805 26.3962 22.3059C26.1898 22.2125 25.9928 22.0632 25.8052 21.8579C25.6363 21.6525 25.5519 21.3072 25.5519 20.8219C25.5519 20.4672 25.5706 19.9445 25.6082 19.2539C25.6644 18.5632 25.7301 17.7885 25.8052 16.9299C25.8802 16.0525 25.9553 15.1379 26.0303 14.1859C26.1054 13.2339 26.1804 12.3192 26.2555 11.4419C26.3306 10.5645 26.3868 9.78053 26.4244 9.08986C26.4807 8.38053 26.5088 7.8392 26.5088 7.46586C26.5088 7.14853 26.4619 6.84986 26.3681 6.56986C26.2743 6.27119 26.1148 6.00986 25.8896 5.78586C25.6644 5.56186 25.3642 5.38453 24.989 5.25386C24.6137 5.12319 24.1446 5.05786 23.5817 5.05786H22.484C22.2401 5.05786 22.09 5.08586 22.0337 5.14186C21.9586 5.21653 21.9117 5.45919 21.893 5.86986C21.7804 7.8672 21.6678 9.62186 21.5552 11.1339C21.4614 12.6459 21.3676 13.9619 21.2738 15.0819C21.1987 16.2019 21.1236 17.1539 21.0486 17.9379C20.9735 18.7219 20.9079 19.3845 20.8516 19.9259C20.814 20.4485 20.7765 20.8779 20.739 21.2139C20.7202 21.5499 20.7108 21.8299 20.7108 22.0539C20.7108 23.4725 20.9642 24.4899 21.4708 25.1059ZM29.795 18.3859C28.2752 19.3379 27.5152 20.6539 27.5152 22.3339C27.5152 23.0059 27.6184 23.5845 27.8248 24.0699C28.05 24.5365 28.3408 24.9192 28.6974 25.2179C29.0726 25.5165 29.5042 25.7312 29.992 25.8619C30.4987 25.9925 31.0334 26.0579 31.5963 26.0579C32.7597 26.0579 33.6979 25.8152 34.4109 25.3299C35.1427 24.8445 35.7337 24.2752 36.184 23.6219C36.3342 24.3872 36.6344 24.9845 37.0847 25.4139C37.535 25.8432 38.2105 26.0579 39.1113 26.0579C39.7493 26.0579 40.284 25.9459 40.7156 25.7219C41.1659 25.4979 41.513 25.2085 41.757 24.8539C42.0197 24.4992 42.2073 24.1072 42.3199 23.6779C42.4325 23.2485 42.4887 22.8285 42.4887 22.4179C42.4887 22.2685 42.4043 22.1752 42.2354 22.1379C42.0666 22.1005 41.8695 22.0445 41.6444 21.9699C41.438 21.8952 41.2503 21.7645 41.0815 21.5779C40.9126 21.3725 40.8282 21.0365 40.8282 20.5699C40.8282 20.3645 40.8469 20.0005 40.8845 19.4779C40.9407 18.9552 40.997 18.4045 41.0533 17.8259C41.1284 17.2285 41.1847 16.6685 41.2222 16.1459C41.2785 15.6045 41.3066 15.2312 41.3066 15.0259C41.3066 13.4579 40.8375 12.2445 39.8994 11.3859C38.9611 10.5272 37.4506 10.0979 35.3678 10.0979C34.2983 10.0979 33.3601 10.2099 32.5533 10.4339C31.7464 10.6579 31.071 10.9659 30.5268 11.3579C30.0014 11.7312 29.598 12.1792 29.3166 12.7019C29.0539 13.2245 28.9225 13.7752 28.9225 14.3539C28.9225 15.7912 29.8795 16.5099 31.7934 16.5099C32.0748 16.5099 32.2812 16.4912 32.4126 16.4539C32.5439 16.3979 32.6283 16.2859 32.6659 16.1179C32.7409 15.7819 32.8254 15.4739 32.9192 15.1939C33.013 14.9139 33.135 14.6805 33.2851 14.4939C33.4352 14.2885 33.6322 14.1299 33.8761 14.0179C34.12 13.9059 34.439 13.8499 34.8331 13.8499C35.5461 13.8499 36.0152 14.0272 36.2403 14.3819C36.4655 14.7365 36.5781 15.2125 36.5781 15.8099C36.5781 16.0152 36.5687 16.1925 36.5499 16.3419C36.5499 16.4725 36.5406 16.6405 36.5218 16.8459C33.5571 16.9205 31.3149 17.4339 29.795 18.3859ZM34.8331 19.2539C35.3022 19.1792 35.7806 19.1419 36.2685 19.1419C36.231 19.6832 36.1278 20.1499 35.9589 20.5419C35.79 20.9339 35.5836 21.2699 35.3397 21.5499C35.1145 21.8112 34.8518 22.0072 34.5516 22.1379C34.2514 22.2685 33.9512 22.3339 33.651 22.3339C33.332 22.3339 33.0318 22.2499 32.7503 22.0819C32.4876 21.9139 32.3563 21.6152 32.3563 21.1859C32.3563 20.8125 32.4688 20.4952 32.694 20.2339C32.9192 19.9725 33.21 19.7672 33.5665 19.6179C33.9418 19.4499 34.364 19.3285 34.8331 19.2539ZM48.6659 14.4939C48.7222 13.8965 48.7503 13.3832 48.7503 12.9539C48.7503 12.5432 48.7128 12.1792 48.6377 11.8619C48.5627 11.5259 48.4126 11.2552 48.1874 11.0499C47.981 10.8259 47.6902 10.6579 47.3149 10.5459C46.9396 10.4339 46.4518 10.3779 45.8513 10.3779H44.9507C44.4628 10.3779 44.2001 10.6672 44.1626 11.2459C44.0876 12.1419 44.0125 13.0192 43.9375 13.8779C43.8812 14.7365 43.8249 15.5392 43.7686 16.2859C43.7123 17.0139 43.6654 17.6765 43.6279 18.2739C43.5903 18.8525 43.5716 19.3192 43.5716 19.6739C43.5716 20.6259 43.6841 21.4379 43.9093 22.1099C44.1345 22.7819 44.4535 23.3325 44.8663 23.7619C45.2791 24.1725 45.7669 24.4712 46.3298 24.6579C46.9115 24.8445 47.5495 24.9379 48.2437 24.9379C48.6002 24.9379 48.9755 24.9099 49.3695 24.8539C49.7636 24.7979 50.1576 24.6859 50.5516 24.5179C50.9457 24.3312 51.3209 24.0792 51.6775 23.7619C52.0527 23.4259 52.3905 22.9965 52.6907 22.4739C52.6907 23.0339 52.6532 23.6219 52.5781 24.2379C52.5031 24.8539 52.3436 25.4232 52.0996 25.9459C51.8745 26.4685 51.5461 26.8979 51.1145 27.2339C50.683 27.5699 50.1201 27.7379 49.4258 27.7379C48.6377 27.7379 48.0467 27.6445 47.6527 27.4579C47.2586 27.2712 46.9678 27.0565 46.7801 26.8139C46.6113 26.5899 46.4799 26.3845 46.3861 26.1979C46.3111 26.0112 46.1797 25.9179 45.9921 25.9179C45.6168 25.9179 45.2509 25.9552 44.8944 26.0299C44.5567 26.1232 44.2564 26.2539 43.9937 26.4219C43.7311 26.5899 43.5153 26.8045 43.3464 27.0659C43.1963 27.3272 43.1212 27.6352 43.1212 27.9899C43.1212 28.4379 43.2807 28.8579 43.5997 29.2499C43.9375 29.6419 44.3972 29.9872 44.9788 30.2859C45.5605 30.5845 46.2454 30.8179 47.0335 30.9859C47.8403 31.1539 48.7222 31.2379 49.6791 31.2379C50.5798 31.2379 51.4617 31.1445 52.3248 30.9579C53.1879 30.7712 53.9666 30.4352 54.6609 29.9499C55.3551 29.4832 55.9274 28.8392 56.3777 28.0179C56.8468 27.2152 57.1283 26.1979 57.2221 24.9659C57.3722 22.8565 57.5036 21.0739 57.6161 19.6179C57.7287 18.1432 57.8132 16.9299 57.8695 15.9779C57.9445 15.0072 57.9914 14.2699 58.0102 13.7659C58.0477 13.2432 58.0665 12.8885 58.0665 12.7019C58.0665 12.2352 57.9914 11.8525 57.8413 11.5539C57.6912 11.2552 57.4848 11.0219 57.2221 10.8539C56.9594 10.6672 56.6498 10.5459 56.2933 10.4899C55.9556 10.4152 55.5897 10.3779 55.1956 10.3779H54.1824C54.0323 10.3779 53.8916 10.4245 53.7602 10.5179C53.6476 10.5925 53.582 10.7325 53.5632 10.9379L53.1129 16.1739C52.9815 17.6859 52.6532 18.8992 52.1278 19.8139C51.6024 20.7285 50.8988 21.1859 50.0169 21.1859C49.5103 21.1859 49.0787 21.0179 48.7222 20.6819C48.3844 20.3272 48.2156 19.7952 48.2156 19.0859C48.2156 18.8059 48.2437 18.4139 48.3 17.9099C48.3563 17.3872 48.4126 16.8365 48.4689 16.2579C48.5439 15.6605 48.6096 15.0725 48.6659 14.4939ZM62.7765 25.5259C63.6397 25.8805 64.7186 26.0579 66.0133 26.0579C67.1954 26.0579 68.218 25.9085 69.0811 25.6099C69.963 25.3112 70.7136 24.9099 71.3328 24.4059C71.952 23.9019 72.4586 23.3232 72.8526 22.6699C73.2654 22.0165 73.5844 21.3445 73.8096 20.6539C74.0535 19.9632 74.213 19.2725 74.288 18.5819C74.3818 17.8725 74.4287 17.2285 74.4287 16.6499C74.4287 14.5779 73.9128 12.9725 72.8808 11.8339C71.8675 10.6765 70.1788 10.0979 67.8146 10.0979C66.2009 10.0979 64.8499 10.3592 63.7616 10.8819C62.6921 11.3859 61.829 12.0579 61.1722 12.8979C60.5155 13.7379 60.0464 14.6992 59.765 15.7819C59.5023 16.8459 59.3709 17.9379 59.3709 19.0579C59.3709 20.0285 59.4741 20.9432 59.6805 21.8019C59.8869 22.6419 60.2434 23.3792 60.7501 24.0139C61.2567 24.6485 61.9322 25.1525 62.7765 25.5259ZM65.8245 14.2256C66.2267 13.9565 66.731 13.8219 67.3361 13.8219C68.1805 13.8219 68.7715 14.0925 69.1093 14.6339C69.4658 15.1565 69.644 15.8845 69.644 16.8179C69.644 16.9205 69.6413 17.0291 69.6362 17.1435L69.9497 17.3838C70.3563 17.6951 70.3563 18.3051 69.9497 18.6164L69.4009 19.0369C69.3129 19.4484 69.1878 19.8474 69.0248 20.2339C68.7997 20.8125 68.4713 21.3072 68.0397 21.7179C67.6269 22.1285 67.0922 22.3339 66.4354 22.3339C65.8921 22.3339 65.4418 22.1743 65.0849 21.8552C64.8331 21.7527 64.6349 21.5234 64.6025 21.2223C64.3046 20.645 64.1557 19.8209 64.1557 18.7499C64.1557 18.3579 64.1838 17.8819 64.2401 17.3219C64.3073 16.8057 64.4262 16.3193 64.5978 15.8626V14.8653C64.5978 14.2332 65.312 13.8705 65.8245 14.2256ZM79.7952 21.3819C79.4574 20.9899 78.8945 20.7939 78.1064 20.7939C77.581 20.7939 77.1401 20.8779 76.7836 21.0459C76.4271 21.2139 76.1456 21.4379 75.9392 21.7179C75.7328 21.9979 75.5827 22.3152 75.4889 22.6699C75.3951 23.0245 75.3482 23.3885 75.3482 23.7619C75.3482 24.4152 75.4983 24.9659 75.7985 25.4139C76.0987 25.8432 76.671 26.0579 77.5154 26.0579C78.097 26.0579 78.5661 25.9552 78.9226 25.7499C79.2979 25.5259 79.5794 25.2645 79.767 24.9659C79.9734 24.6485 80.1141 24.3125 80.1892 23.9579C80.2642 23.6032 80.3018 23.2765 80.3018 22.9779C80.3018 22.2872 80.1329 21.7552 79.7952 21.3819ZM77.5717 18.6659C77.8719 18.7779 78.2565 18.8339 78.7256 18.8339H79.7389C79.9453 18.8339 80.086 18.7965 80.161 18.7219C80.2549 18.6472 80.3205 18.4979 80.3581 18.2739L80.6958 16.5939C80.8272 15.9405 80.9585 15.2592 81.0898 14.5499C81.24 13.8219 81.3807 13.0939 81.512 12.3659C81.6621 11.6192 81.7935 10.9099 81.9061 10.2379C82.0186 9.56586 82.1031 8.9592 82.1594 8.41786C82.2344 7.85786 82.2719 7.40986 82.2719 7.07386C82.2719 6.53253 82.0468 6.06586 81.5965 5.67386C81.1649 5.26319 80.4331 5.05786 79.4011 5.05786H77.7405C77.4966 5.05786 77.3465 5.08586 77.2902 5.14186C77.2151 5.21653 77.1682 5.45919 77.1495 5.86986C77.0557 7.25119 76.9712 8.43653 76.8962 9.42586C76.8211 10.4152 76.7554 11.2645 76.6992 11.9739C76.6429 12.6645 76.5959 13.2339 76.5584 13.6819C76.5397 14.1299 76.5115 14.5032 76.474 14.8019C76.4552 15.1005 76.4365 15.3525 76.4177 15.5579V16.0899C76.4177 16.5379 76.4458 16.9392 76.5021 17.2939C76.5772 17.6299 76.6992 17.9192 76.868 18.1619C77.0369 18.3859 77.2714 18.5539 77.5717 18.6659Z" fill="#0866FF"/>
<path id="Vector_2" fill-rule="evenodd" clip-rule="evenodd" d="M71.9273 12.1667H62.1545V23.8334H71.9273V12.1667ZM69.9497 18.6164C70.3562 18.305 70.3562 17.6951 69.9497 17.3838L65.8565 14.249C65.3424 13.8553 64.5977 14.2199 64.5977 14.8653V21.1348C64.5977 21.7803 65.3424 22.1449 65.8565 21.7511L69.9497 18.6164Z" fill="#0866FF"/>
</g>
</svg>
