<svg width="24" height="24" viewBox="0 0 24 24" fill="none" xmlns="http://www.w3.org/2000/svg">
<g id="gear" clip-path="url(#clip0_261_4582)">
<path id="Vector" d="M12.0001 7.13098C11.3607 7.13098 10.7276 7.25692 10.1368 7.50161C9.54608 7.7463 9.00933 8.10495 8.5572 8.55708C8.10507 9.00921 7.74642 9.54596 7.50173 10.1367C7.25704 10.7274 7.1311 11.3606 7.1311 12C7.1311 12.6394 7.25704 13.2725 7.50173 13.8633C7.74642 14.454 8.10507 14.9908 8.5572 15.4429C9.00933 15.895 9.54608 16.2537 10.1368 16.4984C10.7276 16.743 11.3607 16.869 12.0001 16.869C13.2914 16.869 14.5299 16.356 15.443 15.4429C16.3561 14.5298 16.8691 13.2913 16.8691 12C16.8691 10.7086 16.3561 9.47019 15.443 8.55708C14.5299 7.64396 13.2914 7.13098 12.0001 7.13098ZM8.6311 12C8.6311 11.1065 8.98605 10.2495 9.61786 9.61774C10.2497 8.98593 11.1066 8.63098 12.0001 8.63098C12.8936 8.63098 13.7505 8.98593 14.3823 9.61774C15.0142 10.2495 15.3691 11.1065 15.3691 12C15.3691 12.8935 15.0142 13.7504 14.3823 14.3822C13.7505 15.014 12.8936 15.369 12.0001 15.369C11.1066 15.369 10.2497 15.014 9.61786 14.3822C8.98605 13.7504 8.6311 12.8935 8.6311 12Z" fill="#78787E"/>
<path id="Vector_2" d="M14.6942 2.0146C13.9037 -0.670395 10.0967 -0.670395 9.30623 2.0146L9.16523 2.4931C9.11002 2.68053 9.01357 2.85323 8.88295 2.99854C8.75233 3.14385 8.59085 3.25809 8.41034 3.33288C8.22983 3.40767 8.03487 3.44112 7.83976 3.43078C7.64464 3.42044 7.45431 3.36656 7.28273 3.2731L6.84473 3.0331C4.38473 1.6951 1.69523 4.3861 3.03473 6.8446L3.27323 7.2826C3.36668 7.45419 3.42056 7.64452 3.4309 7.83964C3.44125 8.03475 3.4078 8.22971 3.333 8.41022C3.25821 8.59072 3.14397 8.75221 2.99866 8.88283C2.85335 9.01345 2.68065 9.1099 2.49323 9.1651L2.01473 9.3061C-0.670273 10.0966 -0.670273 13.9036 2.01473 14.6941L2.49323 14.8351C2.68065 14.8903 2.85335 14.9868 2.99866 15.1174C3.14397 15.248 3.25821 15.4095 3.333 15.59C3.4078 15.7705 3.44125 15.9655 3.4309 16.1606C3.42056 16.3557 3.36668 16.546 3.27323 16.7176L3.03323 17.1556C1.69523 19.6156 4.38473 22.3066 6.84473 20.9656L7.28273 20.7271C7.45431 20.6336 7.64464 20.5798 7.83976 20.5694C8.03487 20.5591 8.22983 20.5925 8.41034 20.6673C8.59085 20.7421 8.75233 20.8564 8.88295 21.0017C9.01357 21.147 9.11002 21.3197 9.16523 21.5071L9.30623 21.9856C10.0967 24.6706 13.9037 24.6706 14.6942 21.9856L14.8352 21.5071C14.8904 21.3197 14.9869 21.147 15.1175 21.0017C15.2481 20.8564 15.4096 20.7421 15.5901 20.6673C15.7706 20.5925 15.9656 20.5591 16.1607 20.5694C16.3558 20.5798 16.5461 20.6336 16.7177 20.7271L17.1557 20.9671C19.6157 22.3066 22.3067 19.6141 20.9657 17.1556L20.7272 16.7176C20.6338 16.546 20.5799 16.3557 20.5695 16.1606C20.5592 15.9655 20.5927 15.7705 20.6674 15.59C20.7422 15.4095 20.8565 15.248 21.0018 15.1174C21.1471 14.9868 21.3198 14.8903 21.5072 14.8351L21.9857 14.6941C24.6707 13.9036 24.6707 10.0966 21.9857 9.3061L21.5072 9.1651C21.3198 9.1099 21.1471 9.01345 21.0018 8.88283C20.8565 8.75221 20.7422 8.59072 20.6674 8.41022C20.5927 8.22971 20.5592 8.03475 20.5695 7.83964C20.5799 7.64452 20.6338 7.45419 20.7272 7.2826L20.9672 6.8446C22.3067 4.3846 19.6142 1.6951 17.1557 3.0346L16.7177 3.2731C16.5461 3.36656 16.3558 3.42044 16.1607 3.43078C15.9656 3.44112 15.7706 3.40767 15.5901 3.33288C15.4096 3.25809 15.2481 3.14385 15.1175 2.99854C14.9869 2.85323 14.8904 2.68053 14.8352 2.4931L14.6942 2.0146ZM10.7447 2.4391C11.1137 1.1866 12.8867 1.1866 13.2557 2.4391L13.3967 2.9176C13.5153 3.31973 13.7223 3.69024 14.0026 4.00195C14.283 4.31367 14.6295 4.5587 15.0168 4.71907C15.4042 4.87945 15.8225 4.95111 16.2411 4.92879C16.6598 4.90647 17.0681 4.79075 17.4362 4.5901L17.8727 4.3501C19.0187 3.7276 20.2727 4.9801 19.6487 6.1276L19.4102 6.5656C19.2099 6.93374 19.0944 7.34204 19.0724 7.76059C19.0503 8.17913 19.1221 8.59731 19.2826 8.98448C19.4432 9.37165 19.6883 9.71801 20 9.99817C20.3117 10.2783 20.6822 10.4852 21.0842 10.6036L21.5612 10.7446C22.8137 11.1136 22.8137 12.8866 21.5612 13.2556L21.0827 13.3966C20.6806 13.5151 20.3101 13.7222 19.9984 14.0025C19.6867 14.2828 19.4416 14.6294 19.2813 15.0167C19.1209 15.4041 19.0492 15.8224 19.0715 16.241C19.0939 16.6597 19.2096 17.068 19.4102 17.4361L19.6502 17.8726C20.2727 19.0186 19.0202 20.2726 17.8727 19.6486L17.4362 19.4101C17.068 19.2095 16.6596 19.0938 16.2409 19.0716C15.8221 19.0494 15.4038 19.1212 15.0164 19.2817C14.629 19.4422 14.2825 19.6874 14.0022 19.9993C13.722 20.3112 13.5151 20.6818 13.3967 21.0841L13.2557 21.5611C12.8867 22.8136 11.1137 22.8136 10.7447 21.5611L10.6037 21.0826C10.4851 20.6807 10.2782 20.3104 9.99792 19.9988C9.71769 19.6873 9.37131 19.4423 8.98416 19.282C8.59701 19.1216 8.17889 19.0499 7.76043 19.0721C7.34197 19.0942 6.93377 19.2097 6.56573 19.4101L6.12773 19.6501C4.98173 20.2726 3.72773 19.0201 4.35173 17.8726L4.59023 17.4361C4.79115 17.0679 4.9071 16.6595 4.92957 16.2407C4.95203 15.8218 4.88044 15.4033 4.72004 15.0158C4.55965 14.6282 4.31452 14.2815 4.00264 14.0011C3.69077 13.7206 3.32006 13.5136 2.91773 13.3951L2.43923 13.2541C1.18673 12.8851 1.18673 11.1121 2.43923 10.7431L2.91773 10.6021C3.31944 10.4835 3.68954 10.2765 4.00094 9.99639C4.31234 9.71626 4.55717 9.37005 4.71751 8.98309C4.87784 8.59613 4.94962 8.17822 4.9276 7.75993C4.90558 7.34165 4.79031 6.93359 4.59023 6.5656L4.35023 6.1276C3.72773 4.9816 4.98023 3.7276 6.12773 4.3516L6.56573 4.5901C6.93377 4.79047 7.34197 4.90596 7.76043 4.92813C8.17889 4.9503 8.59701 4.87858 8.98416 4.71823C9.37131 4.55787 9.71769 4.31295 9.99792 4.00139C10.2782 3.68982 10.4851 3.31952 10.6037 2.9176L10.7447 2.4391Z" fill="#78787E"/>
</g>
<defs>
<clipPath id="clip0_261_4582">
<rect width="24" height="24" fill="white"/>
</clipPath>
</defs>
</svg>
